<svg xmlns="http://www.w3.org/2000/svg" xml:space="preserve" width="2048" height="2048" style="shape-rendering:geometricPrecision;text-rendering:geometricPrecision;image-rendering:optimizeQuality;fill-rule:evenodd;clip-rule:evenodd"><defs><clipPath id="id0"><path d="M1024 0c565.539 0 1024 458.461 1024 1024s-458.461 1024-1024 1024S0 1589.539 0 1024 458.461 0 1024 0z"/></clipPath><style>.fil1{fill:#0091ea}</style></defs><g id="Layer_x0020_1"><path d="M1024 0c565.539 0 1024 458.461 1024 1024s-458.461 1024-1024 1024S0 1589.539 0 1024 458.461 0 1024 0z" style="fill:#40c4ff"/><g style="clip-path:url(#id0)"><g id="_461731400"><path id="_4801196561" class="fil1" d="M1382.4 740.369 2518.28 1876.25h-93.24L1289.16 740.37z"/><path id="_480109936" class="fil1" d="m1289.16 740.37 1135.88 1135.88v70.03L1289.16 810.393z"/><path id="_480116752" class="fil1" d="M1289.16 810.393 2425.04 1946.28v45.73L1289.16 856.13z"/><path id="_480106864" class="fil1" d="M1390.59 944.611 2526.48 2080.49l-8.2-7.02L1382.4 937.586z"/><path id="_461351288" class="fil1" d="M1429.02 717.147 2564.9 1853.03v199.16L1429.02 916.305z"/><path id="_461345648" class="fil1" d="m1584 1049.14 1135.88 1135.89-30.23 35.33-1135.88-1135.88z"/><path id="_461337680" class="fil1" d="m1553.77 1084.48 1135.88 1135.88-163.17-139.87L1390.59 944.611z"/><path id="_461335928" class="fil1" d="m1289.16 856.13 1135.88 1135.88-36.97-26.89L1252.19 829.242z"/><path id="_461356640" class="fil1" d="M1252.19 829.242 2388.07 1965.12l-242.06-176.04L1010.13 653.199z"/><path id="_461351816" class="fil1" d="M1010.13 653.199 2146.01 1789.08l-516.99 416.47L493.138 1069.66z"/><path id="_461338184" class="fil1" d="M1429.02 693.928 2564.9 1829.81v23.22L1429.02 717.147z"/><path id="_461331200" class="fil1" d="m1163.09 1032.01 1135.88 1135.88-.72 1.71-.74 1.7-.76 1.68-.79 1.68-.8 1.67-.82 1.65-.85 1.64-.86 1.64-.89 1.62-.9 1.61-.93 1.6-.94 1.58-.96 1.57-.99 1.57-1 1.55-1.02 1.53-1.04 1.53-1.05 1.51-1.08 1.5-1.09 1.48-1.12 1.48-1.12 1.46-1.15 1.44-1.17 1.43-1.18 1.42-1.2 1.41-1.22 1.39-1.23 1.37-1.25 1.36-1.27 1.35-1.29 1.33-1.3 1.32-1135.88-1135.89 1.3-1.31 1.29-1.33 1.26-1.35 1.26-1.36 1.23-1.38 1.22-1.39 1.2-1.4 1.18-1.42 1.17-1.43 1.14-1.45 1.13-1.45 1.12-1.48 1.09-1.48 1.08-1.5 1.05-1.51 1.04-1.53 1.02-1.54 1-1.55.99-1.56.96-1.57.94-1.59.93-1.6.9-1.61.89-1.62.86-1.63.84-1.64.83-1.66.8-1.66.79-1.68.76-1.68.74-1.7z"/><path id="_461338832" class="fil1" d="m1243.5 1165.34 1135.88 1135.88.71.81.71.81.7.81.69.82.68.81.68.82.68.81.67.82.66.82.65.82.65.83.65.82.63.83.63.82.63.83.62.83-1135.88-1135.88-.62-.83-.63-.83-.63-.83-.63-.82-.65-.83-.65-.82-.65-.82-.66-.82-.67-.82-.68-.82-.68-.81-.68-.82-.7-.81-.7-.81-.7-.81z"/><path id="_461331320" class="fil1" d="m1254.14 1178.45 1135.88 1135.88.61.83.6.83.61.84.6.84.59.85.6.85.58.85.59.87.58.86.58.87.57.88.58.88.56.88.57.89.56.9.56.9-1135.89-1135.89-.55-.9-.56-.89-.57-.89-.57-.88-.57-.89-.57-.87-.58-.87-.58-.87-.59-.86-.59-.86-.59-.85-.59-.84-.6-.85-.61-.83-.6-.84z"/><path id="_461356016" class="fil1" d="m1263.47 1192.26 1135.89 1135.89.56.92.56.92.55.92.54.91.54.92.52.91.53.91.51.91.51.91.49.91.5.9.48.9.48.91.47.9.46.89.46.9-1135.89-1135.88-.45-.9-.46-.9-.47-.9-.48-.9-.48-.9-.5-.9-.5-.91-.5-.91-.52-.91-.52-.91-.52-.92-.54-.91-.54-.92-.55-.92-.56-.92z"/><path id="_461357216" class="fil1" d="m1271.63 1206.81 1135.89 1135.88.45.91.45.91.45.92.44.93.44.92.44.94.43.93.43.94.42.95.42.95.42.95.41.96.41.97.41.96.4.98.39.97L1278.45 1221.9l-.39-.98-.4-.97-.41-.97-.41-.96-.41-.96-.42-.95-.42-.95-.42-.95-.43-.94-.43-.94-.44-.93-.44-.93-.44-.92-.45-.92-.45-.91z"/><path id="_461359784" class="fil1" d="m1130.36 1080.78 1135.88 1135.89-1.54 1.52-1.57 1.5-1.58 1.48-1.61 1.45-1.63 1.43-1.64 1.41-1.67 1.38-1.69 1.36-1135.88-1135.88 1.69-1.36 1.67-1.38 1.64-1.41 1.63-1.43 1.61-1.46 1.58-1.47 1.57-1.5z"/><path id="_461333336" class="fil1" d="m1284.17 1237.73 1135.88 1135.88.27.84.26.85.26.88.27.9.26.91.27.93.26.96.27.97.27.99.26 1.01.27 1.03.27 1.05.27 1.06.27 1.09.27 1.1.27 1.12-1135.88-1135.88-.27-1.12-.27-1.11-.27-1.08-.27-1.07-.27-1.04-.27-1.03-.26-1.01-.27-.99-.27-.98-.26-.95-.27-.93-.26-.92-.27-.89-.26-.88-.26-.85z"/><path id="_461358440" class="fil1" d="M1288.44 1253.42 2424.32 2389.3l.26 1.07.24 1.06.24 1.05.24 1.04.23 1.03.22 1.03.22 1.01.21 1.01.2 1 .2 1 .19.98.19.98.18.97.17.96.17.95.16.95-1135.88-1135.88-.16-.95-.17-.95-.17-.96-.18-.97-.19-.98-.19-.99-.2-.99-.2-1-.21-1.01-.22-1.02-.22-1.02-.23-1.04-.24-1.04-.24-1.05-.25-1.05z"/><path id="_461329760" class="fil1" d="m1291.76 1269.51 1135.88 1135.88.17.97.15.98.16.98.15.99.15.99.15 1 .14 1.01.14 1.01.14 1.02.13 1.03.13 1.03.13 1.04.12 1.04.12 1.06.12 1.05.11 1.07-1135.88-1135.89-.11-1.06-.12-1.06-.12-1.05-.13-1.04-.12-1.04-.13-1.03-.14-1.03-.13-1.02-.14-1.01-.14-1.01-.15-1-.15-1-.15-.98-.16-.99-.15-.97z"/><path id="_461337584" class="fil1" d="m1293.97 1285.77 1135.88 1135.89.11 1 .1 1.02.1 1.02.09 1.02.09 1.02.09 1.03.08 1.03.08 1.04.08 1.04.07 1.05.08 1.05.06 1.05.07 1.05.06 1.06.05 1.07.06 1.07-1135.88-1135.89-.06-1.06-.05-1.07-.06-1.06-.07-1.05-.07-1.06-.07-1.05-.07-1.04-.08-1.04-.08-1.04-.08-1.03-.09-1.03-.09-1.03-.09-1.02-.1-1.01-.1-1.02z"/><path id="_461342984" class="fil1" d="m1295.24 1302.39 1135.88 1135.89.13 1.44-1135.88-1135.89z"/><path id="_461349608" class="fil1" d="m1295.37 1303.83 1135.88 1135.89.17 1.95-1135.88-1135.89z"/><path id="_461358536" class="fil1" d="m1295.54 1305.78 1135.88 1135.89v.62L1295.54 1306.41z"/><path id="_461351168" class="fil1" d="m1295.54 1306.41 1135.88 1135.88v22.95L1295.54 1329.36z"/><path id="_461356064" class="fil1" d="m1295.54 1329.36 1135.88 1135.88v21.71L1295.54 1351.06z"/><path id="_461349512" class="fil1" d="m1295.54 1351.06 1135.88 1135.89h-.27L1295.27 1351.06z"/><path id="_461332376" class="fil1" d="m1295.27 1351.06 1135.88 1135.89.02 15.51-1135.89-1135.88z"/><path id="_461348840" class="fil1" d="m1295.28 1366.58 1135.89 1135.88v14.57L1295.29 1381.15z"/><path id="_461340272" class="fil1" d="m1295.29 1381.15 1135.88 1135.88.02 27.58-1135.88-1135.88z"/><path id="_461355224" class="fil1" d="m1295.31 1408.73 1135.88 1135.88.01 22.95-1135.88-1135.88z"/><path id="_461327888" class="fil1" d="M1295.32 1431.68 2431.2 2567.56l.01 21.71-1135.88-1135.88z"/><path id="_461344832" class="fil1" d="M932.378 1093.77 2068.26 2229.65l-.97-.75-.96-.76-.96-.77-.95-.78-.94-.78-.94-.8-.93-.8-.93-.81-.92-.81-.91-.82-.9-.83-.9-.84-.9-.85-.88-.85L919.385 1082.52l.886.85.894.85.9.83.906.84.913.82.919.81.924.81.932.8.938.79.944.79.951.77.955.77.963.77z"/><path id="_461356904" class="fil1" d="m1273.7 1453.39 1135.88 1135.88h-23.82L1249.88 1453.39z"/><path id="_461341112" class="fil1" d="M879.946 1111.74 2015.83 2247.62l.03.07L879.977 1111.81z"/><path id="_461348768" class="fil1" d="m1221.24 1453.39 1135.88 1135.88H2342L1206.12 1453.39z"/><path id="_461357912" class="fil1" d="M1206.12 1453.39 2342 2589.27h-364.14L841.979 1453.39z"/><path id="_461345984" class="fil1" d="M841.979 1453.39 1977.86 2589.27h-15.17L826.805 1453.39z"/><path id="_461360000" class="fil1" d="M826.805 1453.39 1962.69 2589.27h-28.73L798.075 1453.39z"/><path id="_461334320" class="fil1" d="M798.075 1453.39 1933.96 2589.27h-23.91L774.168 1453.39z"/><path id="_461334824" class="fil1" d="M774.168 1453.39 1910.05 2589.27h-21.7L752.464 1453.39z"/><path id="_461344160" class="fil1" d="m1249.88 1453.39 1135.88 1135.88h-28.64L1221.24 1453.39z"/><path id="_461354840" class="fil1" d="m1295.33 1453.39 1135.88 1135.88h-21.63L1273.7 1453.39z"/><path id="_461339384" class="fil1" d="M1132.89 870.643 2268.77 2006.53l2.46 2.64 2.39 2.7 2.34 2.76 2.26 2.81 2.2 2.87 2.13 2.92 2.07 2.98 1.99 3.02 1.92 3.08 1.85 3.13 1.77 3.17 1.7 3.22 1.63 3.27 1.54 3.31 1.47 3.35 1.39 3.4 1.3 3.43 1.23 3.48 1.14 3.51 1.06 3.55.97 3.59.88 3.62.8 3.65.7 3.69.62 3.72.52 3.75.44 3.78.33 3.8.25 3.84.14 3.85.05 3.89L1174.43 974.423l-.05-3.881-.14-3.857-.25-3.833-.33-3.806-.44-3.778-.52-3.749-.62-3.719-.71-3.687-.79-3.656-.89-3.621-.97-3.587-1.05-3.552-1.14-3.514-1.23-3.474-1.31-3.436-1.38-3.396-1.47-3.353-1.55-3.31-1.62-3.265-1.7-3.221-1.77-3.174-1.85-3.125-1.92-3.077-1.99-3.027-2.07-2.975-2.13-2.923-2.2-2.869-2.27-2.814-2.33-2.757-2.4-2.702z"/><path id="_461357720" class="fil1" d="M1174.43 974.423 2310.31 2110.31l-.01 1.91-.03 1.92-.06 1.9-.08 1.9-.11 1.9-.13 1.88-.15 1.88-.17 1.87-.2 1.87-.22 1.85-.24 1.85-.26 1.85-.28 1.83-.31 1.83-.33 1.82-.35 1.8-.37 1.81-.39 1.79-.42 1.78-.43 1.78-.45 1.76-.48 1.76-.5 1.75-.52 1.74-.53 1.73-.56 1.72-.58 1.71-.59 1.7-.62 1.69-.64 1.68-.65 1.67-.68 1.65-1135.88-1135.88.67-1.66.66-1.67.64-1.68.61-1.69.6-1.7.58-1.71.56-1.71.53-1.73.52-1.74.5-1.75.47-1.76.46-1.76.43-1.78.42-1.78.39-1.8.37-1.8.35-1.81.33-1.82.3-1.821.29-1.834.26-1.843.24-1.849.22-1.857.2-1.865.17-1.872.15-1.879.13-1.885.1-1.894.09-1.9.06-1.906.03-1.913z"/><path id="_461358224" class="fil1" d="m1236.19 1157.49 1135.89 1135.89 1.47 1.51 1.46 1.54 1.46 1.57 1.46 1.6 1.45 1.62L1243.5 1165.34l-1.45-1.62-1.46-1.6-1.46-1.57-1.46-1.54z"/><path id="_461357000" class="fil1" d="m1278.45 1221.9 1135.88 1135.88.41 1.02.41 1.02.39 1.01.39 1.01.38 1.01.38 1 .37.99.36.99.35.99.35.98.34.98.33.98.33.97.32.96.31.96.3.96-1135.88-1135.88-.3-.96-.31-.96-.32-.97-.33-.97-.33-.97-.34-.98-.35-.98-.36-.99-.36-.99-.36-1-.38-1-.38-1-.39-1.01-.39-1.01-.41-1.02z"/><path id="_461725976" class="fil1" d="M1429.02 717.147v199.158l154.98 132.84-30.23 35.331-163.177-139.865-8.196-7.025V740.37h-93.242V856.13l-36.97-26.888-242.059-176.043-516.99 416.464-29.138-36.241 530.86-427.637 13.868-11.17 14.359 10.441 219.448 159.6v-70.725h23.31l139.866-.003h23.311v23.22zm-286.105 383.993c6.23 2.156 11.933 4.296 17.106 6.417a258.328 258.328 0 0 1 15.598 7.006c5.483 2.684 10.509 5.35 15.076 8a237.101 237.101 0 0 1 14.405 9.062c4.73 3.224 9.34 6.643 13.83 10.26 4.466 3.6 8.742 7.345 12.82 11.232a198.256 198.256 0 0 1 11.747 12.224 196.47 196.47 0 0 1 10.638 13.106 194.93 194.93 0 0 1 9.338 13.816c3.03 4.92 5.751 9.77 8.16 14.546a198.517 198.517 0 0 1 6.818 15.09c2.203 5.458 4.11 10.736 5.72 15.829 1.398 4.416 2.82 9.653 4.269 15.694 1.366 5.701 2.473 11.061 3.321 16.084a265 265 0 0 1 2.208 16.267c.569 5.374.988 10.916 1.265 16.62l.13 1.441.17 1.95V1351.063h-.263l.011 15.518.008 14.568.016 27.581.011 22.953.012 21.702H752.462v-146.99c0-5.652.256-11.367.757-17.13.484-5.564 1.244-11.359 2.268-17.356.92-5.39 2.155-11.07 3.688-17.01l.02.007a215.669 215.669 0 0 1 5.048-16.772c1.993-5.738 4.102-11.11 6.313-16.1 2.206-4.977 4.812-10.224 7.806-15.73a222.19 222.19 0 0 1 9.003-15.132 206.003 206.003 0 0 1 10.071-14.119c3.697-4.747 7.444-9.18 11.222-13.279 3.603-3.907 7.797-8.082 12.57-12.507l-.04-.041a220.545 220.545 0 0 1 13.388-11.469c4.303-3.392 9.122-6.882 14.451-10.46a233.045 233.045 0 0 1 15.169-9.38c5.56-3.147 10.818-5.88 15.748-8.181l.032.07c5.618-2.62 11.088-4.935 16.381-6.923a227.876 227.876 0 0 1 16.874-5.578l7.888-2.281 11.257-3.255a153.309 153.309 0 0 1-14.747-12.976c-13.96-13.96-25.156-30.505-32.721-48.771-7.307-17.64-11.341-37.09-11.341-57.599 0-20.51 4.033-39.96 11.34-57.6 7.566-18.263 18.76-34.808 32.72-48.769 13.961-13.96 30.505-25.154 48.77-32.719 17.64-7.306 37.09-11.34 57.6-11.34 20.505 0 39.952 4.034 57.592 11.341 18.264 7.568 34.811 18.763 48.773 32.725 27.223 27.223 44.068 64.833 44.068 106.362 0 20.504-4.037 39.95-11.343 57.588-7.57 18.265-18.765 34.811-32.728 48.773a152.514 152.514 0 0 1-12.929 11.538l1.58.546 15.643 5.414 8.262 2.858z"/></g></g><path d="M1024 0c565.539 0 1024 458.461 1024 1024s-458.461 1024-1024 1024S0 1589.539 0 1024 458.461 0 1024 0z" style="fill:none"/><path d="M841.979 1453.39H752.464V1306.399c0-5.651.256-11.368.757-17.13.484-5.563 1.244-11.358 2.268-17.355.92-5.392 2.155-11.07 3.688-17.01l.02.006a216.175 216.175 0 0 1 5.048-16.771c1.993-5.738 4.102-11.11 6.314-16.101 2.205-4.976 4.81-10.224 7.805-15.729a222.221 222.221 0 0 1 9.003-15.133c3.16-4.847 6.52-9.558 10.071-14.118 3.697-4.747 7.443-9.179 11.222-13.278 3.603-3.91 7.797-8.084 12.57-12.508l-.038-.043a220.983 220.983 0 0 1 13.386-11.467c4.304-3.392 9.123-6.882 14.451-10.46a233.56 233.56 0 0 1 15.169-9.38c5.56-3.148 10.818-5.882 15.748-8.18l.031.068c5.619-2.62 11.089-4.935 16.382-6.924a228.434 228.434 0 0 1 16.874-5.577l7.888-2.28 14.94-4.32 12.43-3.596 15.684 1.44c30.39 15.28 48.156 22.939 63.449 22.842 14.972-.096 32.004-7.942 61.073-23.67l8.274-4.478 9.021 3.122 13.02 4.503 15.643 5.414 8.262 2.859c6.23 2.155 11.933 4.295 17.106 6.417a258.698 258.698 0 0 1 15.599 7.006c5.482 2.683 10.508 5.35 15.074 8a236.187 236.187 0 0 1 14.406 9.062c4.73 3.223 9.34 6.643 13.83 10.26 4.467 3.6 8.742 7.346 12.82 11.232a198.225 198.225 0 0 1 11.745 12.224 196.127 196.127 0 0 1 10.64 13.105 194.93 194.93 0 0 1 9.338 13.817c3.03 4.92 5.752 9.769 8.16 14.546a198.282 198.282 0 0 1 6.818 15.09c2.202 5.458 4.11 10.735 5.72 15.83 1.396 4.414 2.82 9.651 4.269 15.694 1.366 5.7 2.472 11.06 3.321 16.083a265.768 265.768 0 0 1 2.209 16.266c.567 5.375.987 10.917 1.264 16.62l.13 1.443.17 1.949v45.278h-.263l.011 15.519.008 14.568.017 27.582.012 22.95.01 21.704H841.98z" style="fill:#424242;fill-rule:nonzero"/><path style="fill:#c8e6c9;fill-rule:nonzero" d="m1553.77 1084.48-163.18-139.869-8.19-7.025V740.369l-93.24.001V856.13l-36.97-26.888-242.06-176.043-516.992 416.461L464 1033.42l530.859-427.636 13.871-11.171 14.36 10.443 219.44 159.6v-70.725l23.32-.001 139.86-.002h23.31V916.305L1584 1049.14z"/><path d="m1081.52 1113.54-.012-.03c18.36-7.607 34.935-18.804 48.858-32.728 13.963-13.962 25.158-30.508 32.727-48.771 7.309-17.639 11.344-37.086 11.344-57.59 0-41.528-16.845-79.137-44.068-106.362-13.962-13.961-30.509-25.157-48.773-32.724-17.639-7.308-37.087-11.343-57.592-11.343-20.51 0-39.96 4.034-57.6 11.34-18.265 7.566-34.81 18.76-48.77 32.72-13.96 13.961-25.154 30.506-32.72 48.77-7.307 17.64-11.34 37.088-11.34 57.6 0 20.51 4.034 39.958 11.34 57.598 7.566 18.266 18.761 34.81 32.722 48.771 13.96 13.961 30.504 25.157 48.769 32.723 17.64 7.306 37.09 11.341 57.599 11.341 20.475 0 39.896-4.024 57.516-11.315z" style="fill:#ffab40;fill-rule:nonzero"/></g></svg>